<?xml version="1.0" standalone="no"?>
<!DOCTYPE svg PUBLIC "-//W3C//DTD SVG 20010904//EN"
 "http://www.w3.org/TR/2001/REC-SVG-20010904/DTD/svg10.dtd">
<svg version="1.0" xmlns="http://www.w3.org/2000/svg"
 width="1000.000000pt" height="1000.000000pt" viewBox="0 0 1000.000000 1000.000000"
 preserveAspectRatio="xMidYMid meet">
<metadata>
Created by potrace 1.14, written by Peter Selinger 2001-2017
</metadata>
<g transform="translate(0.000000,1000.000000) scale(0.100000,-0.100000)"
fill="#000000" stroke="none">
<path d="M2926 7590 c-102 -18 -141 -77 -140 -210 0 -85 10 -142 44 -255 28
-94 1508 -4093 1537 -4153 14 -31 55 -84 97 -126 153 -155 361 -253 479 -227
86 19 135 104 312 536 237 583 436 919 690 1170 287 284 628 466 1345 720 135
47 288 107 340 133 121 60 140 85 140 187 0 141 -62 278 -180 395 l-75 76
-2045 832 c-1125 457 -2084 845 -2132 861 -161 54 -316 77 -412 61z"/>
<path d="M2131 7496 c-53 -82 -101 -194 -128 -304 -13 -51 -17 -110 -17 -247
0 -194 15 -291 70 -468 27 -85 1478 -4013 1541 -4171 70 -175 158 -301 321
-458 200 -191 454 -329 712 -384 122 -26 327 -24 435 5 183 48 358 162 469
304 111 143 168 255 320 623 232 564 346 766 545 965 211 210 446 333 1041
544 273 97 378 139 483 192 264 132 428 323 499 578 19 68 22 106 22 255 1
162 -2 183 -29 290 -23 90 -30 107 -33 80 -26 -322 -200 -546 -539 -695 -54
-23 -215 -84 -358 -135 -571 -203 -827 -329 -1048 -516 -214 -182 -396 -485
-622 -1038 -59 -143 -128 -306 -154 -362 -144 -304 -315 -461 -571 -525 -72
-18 -103 -21 -220 -16 -143 5 -234 25 -370 81 -273 112 -552 360 -674 601 -35
70 -1516 4063 -1574 4245 -61 192 -87 386 -72 535 5 49 7 91 5 93 -2 2 -26
-30 -54 -72z"/>
</g>
</svg>
