<?xml version="1.0" standalone="no"?>
<!DOCTYPE svg PUBLIC "-//W3C//DTD SVG 20010904//EN"
 "http://www.w3.org/TR/2001/REC-SVG-20010904/DTD/svg10.dtd">
<svg version="1.0" xmlns="http://www.w3.org/2000/svg"
 width="1000.000000pt" height="1000.000000pt" viewBox="0 0 1000.000000 1000.000000"
 preserveAspectRatio="xMidYMid meet">
<metadata>
Created by potrace 1.14, written by Peter Selinger 2001-2017
</metadata>
<g transform="translate(0.000000,1000.000000) scale(0.100000,-0.100000)"
fill="#000000" stroke="none">
<path d="M1285 9985 c-268 -42 -509 -146 -715 -309 -70 -55 -190 -173 -230
-225 -14 -18 -29 -38 -35 -44 -109 -129 -241 -420 -275 -605 -6 -35 -14 -78
-18 -95 -3 -18 -7 -1677 -8 -3687 -2 -3614 -2 -3656 18 -3769 55 -319 198
-592 426 -818 209 -206 455 -337 762 -405 l105 -23 3660 0 c2013 0 3685 3
3715 7 135 18 319 68 400 109 19 9 53 25 75 35 153 69 392 258 495 393 14 18
30 38 35 44 6 7 28 39 50 72 136 205 210 406 245 660 5 33 8 1689 8 3680 0
3881 2 3688 -49 3880 -138 520 -544 926 -1064 1064 -193 51 3 49 -3890 49
-2856 0 -3647 -3 -3710 -13z"/>
</g>
</svg>
